<svg width="125" height="52" viewBox="0 0 125 52" fill="none" xmlns="http://www.w3.org/2000/svg">
<g clip-path="url(#clip0_177_13)">
<path d="M36.6842 39.0398H33.4651H27.5049C26.2864 39.0398 25.2916 38.0679 25.264 36.8504L25.0733 28.5233C25.0733 26.5188 27.1789 26.1903 27.201 26.1847H33.4181C33.4209 26.1847 33.4209 26.1847 33.4236 26.1847H36.64C37.9 26.1875 38.9224 25.166 38.9224 23.9069V15.5109C38.9224 14.2519 37.9028 13.2275 36.64 13.2275H33.4209H27.5464C26.3057 13.2275 25.2916 12.2391 25.264 11.0022L25.0678 2.49568C25.0402 1.256 24.0261 0.267578 22.7854 0.267578H19.5663H13.9875C12.7275 0.267578 11.7051 1.28913 11.7051 2.5509V12.4655C11.7051 13.0702 11.9427 13.65 12.3738 14.0779L20.9507 22.6507C21.7382 23.4376 21.7382 24.7104 20.9507 25.4945C20.5721 25.87 20.0637 26.0826 19.5276 26.0854H13.946C12.7053 26.0854 11.7051 27.0848 11.7051 28.3245V38.2971C11.7051 38.8907 11.9399 39.4595 12.36 39.8791L23.8382 51.3482C24.2582 51.7678 24.8274 52.0025 25.4243 52.0025H33.4623H36.6814C37.9193 52.0025 38.9224 51.0003 38.9224 49.7634V41.2817C38.9251 40.0448 37.9221 39.0398 36.6842 39.0398Z" fill="#2156A3"/>
<path d="M19.088 25.175C20.0993 25.175 20.6105 23.9574 19.9004 23.2395L10.8427 14.0372C10.4034 13.5899 9.79822 13.3359 9.16822 13.3359H5.94636H1.32632C0.594083 13.3359 0 13.9295 0 14.6584V23.6592C0 24.4958 0.679741 25.175 1.51698 25.175H15.8662H19.088Z" fill="#2156A3"/>
<path d="M122.342 38.775H119.946C119.941 38.775 119.932 38.775 119.927 38.775H119.123C119.128 38.775 119.137 38.775 119.142 38.775H119.123H116.827C116.821 38.775 116.816 38.775 116.81 38.775H113.588H112.997C111.778 38.775 110.786 37.8031 110.756 36.5855L110.565 28.2585V28.2309C110.482 26.9691 109.441 25.9834 108.178 25.9337C106.777 25.8785 105.169 25.815 105.022 25.815H104.862C104.379 25.815 103.898 25.6714 103.522 25.3677C102.58 24.603 102.527 23.2142 103.364 22.3804L111.941 13.8076C112.37 13.3824 112.61 12.8026 112.61 12.1952V2.28332C112.61 1.02432 111.588 0 110.325 0H107.913C107.913 0 107.913 0 107.91 0H107.106C107.106 0 107.106 0 107.109 0H107.106H105.014H101.792C100.552 0 99.5402 0.988425 99.5098 2.2281L99.3164 10.7346C99.286 11.9715 98.2747 12.96 97.034 12.96H91.1568H87.9377C86.6777 12.96 85.6553 13.9815 85.6553 15.2405V23.6449C85.6553 24.7659 86.4676 25.6991 87.5398 25.8868C87.6696 25.9117 87.8023 25.9227 87.9404 25.9227H91.1623H95.1053C96.3653 25.9227 97.3905 26.9387 97.396 28.1977L97.4651 38.0323C97.4651 38.6259 97.7 39.1946 98.1227 39.6143L109.601 51.0778C109.604 51.0806 109.604 51.0806 109.606 51.0834C110.018 51.4947 110.574 51.7322 111.157 51.7322H113.42H119.123H122.342C123.58 51.7322 124.583 50.73 124.583 49.493V41.0114C124.583 39.7772 123.58 38.775 122.342 38.775Z" fill="#2156A3"/>
<path d="M105.318 24.9054H108.001H119.668H122.351C123.188 24.9054 123.868 24.2262 123.868 23.3897V14.3889C123.868 13.66 123.273 13.0664 122.541 13.0664H120.665H119.861H119.858H117.921H115.238C114.608 13.0664 114.003 13.3177 113.564 13.7649L104.506 22.97C103.796 23.6878 104.307 24.9054 105.318 24.9054Z" fill="#2156A3"/>
<path d="M75.2477 24.2095H67.0024C66.2619 23.7788 65.4108 23.5413 64.5239 23.5413H60.0613C58.3012 23.5413 56.6737 24.48 55.795 26.0013L53.5623 29.8639C53.2971 30.3223 53.1119 30.8109 53.0097 31.3134L52.9019 31.1561L48.934 24.6071C48.934 24.6071 46.3781 21.2829 48.7737 16.7438C48.7765 16.7438 48.7765 16.7411 48.7765 16.7411L48.9423 16.4677C50.3681 14.1154 52.9185 12.6797 55.6706 12.6797H68.9201C71.6722 12.6797 74.2254 14.1182 75.6484 16.4705L81.5063 26.1477C78.978 24.1681 75.2477 24.2095 75.2477 24.2095Z" fill="url(#paint0_linear_177_13)"/>
<path d="M66.3858 40.7453L61.8846 48.1806C60.5057 50.4612 58.0659 51.8831 55.4132 51.9687C52.7606 51.8831 50.3234 50.4612 48.9418 48.1834L41.8018 36.3968C40.2848 33.8954 40.2848 30.7589 41.8018 28.2575L47.458 18.9199C47.458 18.9199 46.6678 21.9211 48.2566 24.4695C49.7625 26.8881 52.6279 31.5845 52.9098 32.0511C52.8738 32.6723 52.9567 33.3018 53.1612 33.8982C53.1916 34.0003 53.2303 34.0997 53.2745 34.2019C53.3546 34.4007 53.4514 34.5967 53.5619 34.7872L55.7945 38.6498C56.6732 40.1738 58.3007 41.1126 60.0609 41.1126H64.5234C64.6229 41.1126 64.7196 41.1098 64.8191 41.1015C64.855 41.1015 64.8909 41.0987 64.9241 41.0932C64.9959 41.0905 65.065 41.0822 65.1341 41.0739C65.1534 41.0711 65.17 41.0711 65.1866 41.0656C65.2833 41.0546 65.3827 41.038 65.4795 41.0187C65.5099 41.0132 65.543 41.0076 65.5734 40.9966C65.6342 40.9855 65.6978 40.9717 65.7585 40.9524C65.7972 40.9441 65.8359 40.9331 65.8746 40.922C65.9409 40.9055 66.0072 40.8834 66.0735 40.8613C66.0929 40.8558 66.1095 40.8503 66.126 40.842C66.2034 40.8171 66.278 40.7895 66.3526 40.7591C66.3637 40.7564 66.3747 40.7509 66.3858 40.7453Z" fill="url(#paint1_linear_177_13)"/>
<path d="M82.7851 36.3929L75.6478 48.1795C74.2248 50.5346 71.6716 51.973 68.9195 51.973H55.6701C55.5844 51.973 55.4987 51.9703 55.4131 51.9675C58.0657 51.8819 60.5056 50.46 61.8844 48.1795L66.3857 40.7442C67.3804 40.3383 68.2342 39.6094 68.7896 38.6486L71.0223 34.786C71.9037 33.2647 71.9037 31.3873 71.0223 29.8632L68.7896 26.0006C68.4829 25.4705 68.085 25.0094 67.6208 24.6367H75.2748C78.6431 24.6367 80.7265 25.9785 81.818 26.9863C81.8346 27.0029 81.8512 27.0167 81.865 27.0332C82.2048 27.4087 82.5116 27.8173 82.7796 28.2591L82.9205 28.4938C84.2966 30.951 84.2524 33.9688 82.7851 36.3929Z" fill="url(#paint2_linear_177_13)"/>
</g>
<defs>
<linearGradient id="paint0_linear_177_13" x1="69.6154" y1="33.007" x2="56.8083" y2="10.8067" gradientUnits="userSpaceOnUse">
<stop stop-color="#557BC6"/>
<stop offset="1" stop-color="#1F4C9B"/>
</linearGradient>
<linearGradient id="paint1_linear_177_13" x1="53.5253" y1="18.9193" x2="53.5253" y2="51.968" gradientUnits="userSpaceOnUse">
<stop stop-color="#557BC6"/>
<stop offset="1" stop-color="#1F4C9B"/>
</linearGradient>
<linearGradient id="paint2_linear_177_13" x1="55.4126" y1="38.3047" x2="83.9197" y2="38.3047" gradientUnits="userSpaceOnUse">
<stop stop-color="#557BC6"/>
<stop offset="1" stop-color="#1F4C9B"/>
</linearGradient>
<clipPath id="clip0_177_13">
<rect width="124.583" height="52" fill="white"/>
</clipPath>
</defs>
</svg>
